<svg xmlns="http://www.w3.org/2000/svg" width="0" height="0" style="position:absolute">
<symbol id="heart" viewBox="0 0 24 24">
<path d="M12 21.35l-1.45-1.32C5.4 15.36 2 12.28 2 8.5 2 6.5 3.5 5 5.5 5c1.54 0 3.04.99 3.57 2.36h.86C10.96 5.99 12.46 5 14 5c2 0 3.5 1.5 3.5 3.5 0 3.78-3.4 6.86-8.55 11.54L12 21.35z"/>
</symbol>
<symbol id="star" viewBox="0 0 24 24">
<path d="M12 17.27L18.18 21l-1.64-7.03L22 9.24l-7.19-.61L12 2 9.19 8.63 2 9.24l5.46 4.73L5.82 21z"/>
</symbol>
<symbol id="bow" viewBox="0 0 24 24">
<path d="M12 12c1.2 0 2.2-.4 3-1.2 1.6-1.5 3.2-2.2 5-2.3-1.2 2.1-2.5 3.6-4.2 4.6 1.6.7 3 1.9 4.2 3.6-1.9-.1-3.5-.8-5-2.3-.8-.8-1.8-1.2-3-1.2s-2.2.4-3 1.2c-1.5 1.5-3.1 2.2-5 2.3 1.2-1.7 2.6-2.9 4.2-3.6-1.7-1-3-2.5-4.2-4.6 1.8.1 3.4.8 5 2.3.8.8 1.8 1.2 3 1.2z"/>
</symbol>
<symbol id="paw" viewBox="0 0 24 24">
<path d="M7 9a2.5 2.5 0 115 0 2.5 2.5 0 01-5 0zm6.5-1A2.5 2.5 0 1116 10.5 2.5 2.5 0 0113.5 8zm-8 6c2.5-2.2 6-2.2 8.5 0 .7.6 1.3 1.7.9 2.5-.3.7-1.2.7-1.9.5-.8-.3-1.7-.6-2.7-.6s-1.9.3-2.7.6c-.7.2-1.6.2-1.9-.5-.4-.8.2-1.9.9-2.5z"/>
</symbol>
<symbol id="play" viewBox="0 0 24 24">
<path d="M8 5v14l11-7z"/>
</symbol>
</svg>